<svg aria-hidden="true" style="position:absolute;width:0;height:0" xmlns="http://www.w3.org/2000/svg" overflow="hidden"><defs>

<symbol id="icon-trophy" viewBox="0 0 14 14"><path fill="#00D7FF" d="M13.59 1.01h-1.797c.007-.199.01-.399.01-.6a.41.41 0 00-.41-.41H2.607a.41.41 0 00-.41.41c0 .201.003.401.01.6H.41a.41.41 0 00-.41.41c0 1.838.48 3.572 1.352 4.883.863 1.296 2.01 2.039 3.251 2.111.281.306.579.556.889.746v1.823h-.689a1.51 1.51 0 00-1.508 1.509v.688h-.03a.41.41 0 000 .82h7.47a.41.41 0 100-.82h-.03v-.688a1.51 1.51 0 00-1.508-1.509h-.688V9.16c.31-.19.606-.44.888-.746 1.24-.072 2.388-.815 3.25-2.111C13.52 4.993 14 3.258 14 1.421a.41.41 0 00-.41-.41zM2.035 5.85C1.316 4.767.893 3.354.83 1.83h1.424c.147 1.872.587 3.602 1.274 4.976.11.218.223.425.342.62-.682-.258-1.313-.797-1.834-1.578zm9.93 0c-.52.781-1.152 1.32-1.834 1.578.119-.195.233-.402.342-.62.687-1.374 1.126-3.104 1.274-4.976h1.424c-.064 1.523-.487 2.936-1.206 4.018z"/></symbol>

<symbol id="icon-Star" viewBox="0 0 32 32"><path fill="#00D7FF" d="M30.608 11.163l-8.812-.833a1.523 1.523 0 01-1.263-.934l-3.156-7.651c-.505-1.263-2.298-1.263-2.803 0l-3.131 7.651a1.49 1.49 0 01-1.263.934l-8.813.833c-1.313.126-1.843 1.768-.859 2.651l6.641 5.833c.429.379.606.934.48 1.49l-1.995 8.181c-.303 1.288 1.086 2.348 2.247 1.667l7.348-4.318a1.526 1.526 0 011.54 0l7.348 4.318c1.162.681 2.55-.354 2.247-1.667l-1.97-8.181a1.511 1.511 0 01.48-1.49l6.641-5.833c.96-.884.404-2.525-.909-2.651z"/></symbol>

<symbol id="icon-calendar" viewBox="0 0 32 32"><path fill="#00D7FF" d="M11.429 14.4H8.381v3.2h3.048v-3.2zm6.095 0h-3.048v3.2h3.048v-3.2zm6.095 0h-3.048v3.2h3.048v-3.2zm3.048-11.2h-1.524V0h-3.048v3.2H9.904V0H6.856v3.2H5.332C3.641 3.2 2.3 4.64 2.3 6.4l-.015 22.4c0 1.76 1.356 3.2 3.048 3.2h21.333c1.676 0 3.048-1.44 3.048-3.2V6.4c0-1.76-1.371-3.2-3.048-3.2zm0 25.6H5.334V11.2h21.333v17.6z"/></symbol>

<symbol id="icon-clear" viewBox="0 0 32 32"><path fill="DB0837" d="M32 3.223L28.777 0 16 12.777 3.223 0 0 3.223 12.777 16 0 28.777 3.223 32 16 19.223 28.777 32 32 28.777 19.223 16 32 3.223z"/></symbol>

<symbol id="icon-save" viewBox="0 0 32 32"><path fill="#00D7FF" d="M24.889 0H3.556A3.555 3.555 0 000 3.556v24.889a3.555 3.555 0 003.556 3.556h24.889c1.956 0 3.556-1.6 3.556-3.556V7.112L24.89.001zm3.555 28.444H3.555V3.555h19.858l5.031 5.031v19.858zM16 16c-2.951 0-5.333 2.382-5.333 5.333s2.382 5.333 5.333 5.333 5.333-2.382 5.333-5.333A5.326 5.326 0 0016 16zM5.333 5.333h16v7.111h-16V5.333z"/></symbol>

<symbol id="icon-done" viewBox="0 0 32 32"><path fill="#24d40c" d="M10.182 22.652l-7.636-7.164-2.545 2.388 10.182 9.552L32.001 6.959l-2.545-2.388-19.273 18.081z"/></symbol>

<symbol id="icon-left-clouds" viewBox="0 0 37 32"><path fill="#eaeaea" d="M2.291 16.906h5.227a.707.707 0 00-.517-.533.74.74 0 00-1.043-.847l.004-.002a1 1 0 00-.91-.587h-.001a.998.998 0 00-.934.647l-.002.007a.757.757 0 00-.423-.128h-.006a.777.777 0 00-.769.891l-.001-.004a.716.716 0 00-.626.556zM0 6.012h5.67a.766.766 0 00-.559-.578l-.005-.001a.84.84 0 00.023-.195v-.001a.8.8 0 00-.8-.8h-.001a.755.755 0 00-.35.082 1.081 1.081 0 00-1.996.066l-.002.007a.844.844 0 00-.461-.136h-.002-.001a.842.842 0 00-.843.843V5.3c0 .039.004.082.008.121a.755.755 0 00-.68.586L0 6.012zM.552 30.49h4.352a.59.59 0 00-.428-.442l-.004-.001a.616.616 0 00-.594-.766.614.614 0 00-.268.062.832.832 0 00-.756-.486h-.002-.001a.827.827 0 00-.775.539l-.002.006a.634.634 0 00-.351-.105h-.004a.644.644 0 00-.644.644v.002a.73.73 0 00.008.093.59.59 0 00-.528.451l-.001.004zM12.289 2.073h5.518a.753.753 0 00-.543-.563l-.005-.001a.778.778 0 00-.754-.969h-.001a.783.783 0 00-.342.078 1.053 1.053 0 00-1.946.062l-.002.007a.805.805 0 00-.45-.136h-.001-.001a.82.82 0 00-.812.942l-.001-.004a.743.743 0 00-.661.583zM9.773 27.239h6.841a.928.928 0 00-.674-.699l-.006-.001a.964.964 0 00-.933-1.201.97.97 0 00-.424.097 1.31 1.31 0 00-1.19-.766h-.003a1.3 1.3 0 00-1.219.847l-.003.009a1.015 1.015 0 00-1.571.848.84.84 0 00.012.144.934.934 0 00-.828.723z"/></symbol>

<symbol id="icon-right-clouds" viewBox="0 0 37 32"><path fill="#eaeaea" d="M31.283 14.903h4.947a.672.672 0 00-.485-.505l-.005-.001a.646.646 0 00.019-.171v-.001a.7.7 0 00-.7-.7h-.001a.74.74 0 00-.312.072l.004-.002a.947.947 0 00-.859-.556h-.002a.943.943 0 00-.883.612l-.002.007a.717.717 0 00-.398-.121h-.007a.737.737 0 00-.735.735c0 .035.004.07.008.105a.67.67 0 00-.59.52l-.001.004zm-.638-12.017h6.226a.846.846 0 00-.612-.633l-.006-.001a.94.94 0 00.027-.213v-.001-.001a.878.878 0 00-.878-.878h-.001a.855.855 0 00-.385.089 1.188 1.188 0 00-2.195.069l-.003.008a.891.891 0 00-.5-.151h-.006a.928.928 0 00-.926.926c0 .043.004.089.008.132a.832.832 0 00-.749.648l-.001.006zm2.174 26.309h4.352a.591.591 0 00-.427-.442l-.004-.001a.615.615 0 00-.595-.766.614.614 0 00-.268.062.832.832 0 00-.756-.486h-.003a.83.83 0 00-.776.539l-.002.006a.635.635 0 00-.352-.105h-.002-.001a.644.644 0 00-.644.644v.001a.73.73 0 00.008.093.576.576 0 00-.528.451l-.001.004zm-11.752-1.12h5.736a.781.781 0 00-.562-.586l-.005-.001a.84.84 0 00.023-.198v-.001a.808.808 0 00-1.167-.724l.005-.002a1.09 1.09 0 00-.993-.642h-.007c-.468 0-.868.294-1.024.708l-.003.008a.852.852 0 00-1.319.712c0 .043.004.082.008.121a.78.78 0 00-.691.602l-.001.005z"/></symbol>

<symbol id="icon-base" viewBox="0 0 63 32"><path fill="#d67412" d="M33.417 27.843c-.931.603-2.257.603-3.189 0L5.787 12.039c-1.841-1.184-.778-3.551 1.589-3.551h48.881c2.367 0 3.431 2.356 1.589 3.551l-24.43 15.804z"/><path fill="var(--color4, #fc842c)" d="M24.879 27.415c-.176.208-.449.208-.625 0l-5.392-6.488-4.953-5.94c-.274-.34-.087-.91.307-.91h20.736c.394 0 .592.581.307.909l-4.954 5.941-5.425 6.488z"/><path fill="var(--color4, #fc842c)" d="M38.305 27.832a.421.421 0 01-.68 0l-5.962-7.146-5.458-6.554c-.307-.372-.087-1.008.34-1.008h22.841c.439 0 .647.636.34 1.008l-5.458 6.554-5.962 7.146z"/><path fill="var(--color4, #fc842c)" d="M31.718 31.624c-.153.186-.394.186-.548 0l-4.79-5.743-4.395-5.26c-.252-.296-.076-.812.274-.812h18.369c.351 0 .526.516.274.812l-4.395 5.26-4.79 5.743z"/><path fill="var(--color5, #f99943)" d="M42.295 15.37h-2.62c-.307 0-.559-.285-.559-.636s.252-.636.559-.636h2.62c.307 0 .559.285.559.636s-.252.636-.559.636zm1.741 0h-.372c-.307 0-.559-.285-.559-.636s.252-.636.559-.636h.373c.307 0 .559.285.559.636s-.252.636-.559.636zm-12.778 2.006h-3.091c-.362 0-.658-.329-.658-.745s.296-.745.658-.745h3.091c.361 0 .657.329.657.745s-.296.745-.658.745zm2.061 0h-.439c-.362 0-.657-.329-.657-.745s.295-.745.657-.745h.438c.362 0 .658.329.658.745s-.296.745-.657.745zm-1.656 9.974h-1.787c-.209 0-.384-.198-.384-.428s.175-.428.384-.428h1.786c.208 0 .383.197.383.428s-.164.428-.383.428zm1.195 0h-.252c-.208 0-.383-.198-.383-.428s.175-.428.383-.428h.252c.209 0 .384.197.384.428s-.164.428-.384.428zM22.347 16.74c0 .526-.372.943-.844.943H18.96c-.46 0-.844-.428-.844-.943 0-.526.372-.943.844-.943h2.543c.471 0 .844.417.844.943z"/><path fill="var(--color5, #f99943)" d="M24.243 18.1c0 .526-.372.943-.844.943h-2.543c-.46 0-.844-.428-.844-.943 0-.527.372-.943.844-.943h2.543c.471 0 .844.416.844.943zm14.654.755c0-.405-.296-.745-.657-.745h-2.007c-.361 0-.657.329-.657.745 0 .406.296.745.657.745h2.006c.361 0 .657-.329.657-.745z"/><path fill="var(--color5, #f99943)" d="M40.387 17.793c0-.406-.295-.745-.657-.745h-1.994c-.362 0-.658.329-.658.745 0 .405.296.745.658.745h1.994c.362-.011.657-.34.657-.745zm-.811 3.627c-.438 0-.8.405-.8.899 0 .142.033.273.087.394h-.525c-.439 0-.8.406-.8.899 0 .504.361.899.8.899h2.707l2.597-3.113h-4.065v.022zm-15.53.647h-.526a.927.927 0 00.087-.395c0-.504-.361-.898-.8-.898H18.73l.132.164 2.455 2.948h2.729c.439 0 .8-.406.8-.899 0-.515-.361-.921-.8-.921zm8.385-1.129c0 .471-.34.844-.756.844h-3.507c-.417 0-.756-.383-.756-.844 0-.471.34-.844.756-.844h3.507c.428 0 .756.372.756.844zm-1.382 1.337c0-.273.197-.493.439-.493h-1.665c.24 0 .438.22.438.493s-.197.493-.439.493h1.665c-.252 0-.438-.218-.438-.493zm2.992 1.238c0 .417-.296.745-.657.745h-4.155c-.361 0-.657-.329-.657-.745s.296-.745.657-.745h4.154c.361 0 .657.34.657.745z"/><path fill="var(--color6, #bc5800)" d="M62.406 3.194a.52.52 0 00-.449-.285H1.688a.518.518 0 00-.449.285.636.636 0 00-.009.584l-.002-.004 3.935 8.264a.506.506 0 00.46.307h52.41a.513.513 0 00.459-.304l.001-.003 3.935-8.264a.712.712 0 00-.024-.585l.002.004z"/><path fill="var(--color7, #aa5000)" d="M15.42 10.691h-5.085c-.603 0-1.085-.548-1.085-1.228s.482-1.228 1.085-1.228h5.085c.604 0 1.085.548 1.085 1.228s-.482 1.227-1.085 1.227zm3.387 0h-.724c-.603 0-1.085-.548-1.085-1.228s.482-1.228 1.085-1.228h.724c.603 0 1.085.548 1.085 1.228s-.482 1.227-1.085 1.227zm28.737-2.346h4.647c.548 0 .997.505.997 1.118s-.449 1.119-.997 1.119h-4.647c-.548 0-.997-.505-.997-1.118s.449-1.119.997-1.119zm-3.102 0h.669c.548 0 .997.505.997 1.118s-.449 1.119-.997 1.119h-.669c-.548 0-.996-.505-.996-1.118s.449-1.119.996-1.119zm-11.003.307c0 .669-.482 1.217-1.074 1.217h-3.014c-.592 0-1.074-.548-1.074-1.217s.482-1.216 1.074-1.216h3.014c.592 0 1.074.548 1.074 1.216z"/><path fill="var(--color7, #aa5000)" d="M36.354 9.989c0 .691-.505 1.26-1.118 1.26h-3.08c-.614 0-1.118-.559-1.118-1.26 0-.691.504-1.26 1.118-1.26h3.08c.613 0 1.118.57 1.118 1.26z"/><path fill="var(--color8, #dfdfdf)" d="M62.636 6.12c0 .252-.175.449-.405.449H.724c-.22 0-.406-.197-.406-.449V1.068c0-.252.175-.449.406-.449h61.507c.219 0 .406.197.406.449V6.12z"/><path fill="var(--color9, #c3c3c3)" d="M62.231.618h-.417v4.68c0 .252-.175.449-.405.449H.318v.383c0 .252.175.449.406.449h61.507c.219 0 .406-.197.406-.449V1.078c0-.263-.187-.46-.406-.46z"/><path fill="var(--color10, #fff)" d="M6.182 3.271H3.331c-.34 0-.614-.307-.614-.691s.274-.69.614-.69h2.851c.34 0 .614.307.614.691s-.274.69-.614.69zm1.907 0h-.406c-.34 0-.614-.307-.614-.691s.274-.69.614-.69h.406c.34 0 .614.307.614.691-.012.383-.285.69-.614.69z"/></symbol>

<symbol id="icon-target" viewBox="0 0 35 32"><path fill="#00d7ff" d="M15.907 29.735c7.514 0 13.605-6.091 13.605-13.605S23.421 2.525 15.907 2.525 2.302 8.616 2.302 16.13s6.092 13.605 13.605 13.605z"/><path fill="var(--color10, #fff)" d="M23.782 24.002c4.348-4.348 4.348-11.397 0-15.745s-11.398-4.348-15.745 0c-4.348 4.348-4.348 11.398 0 15.746s11.397 4.348 15.745 0z"/><path fill="var(--color11, #00d7ff)" d="M15.907 24.575a8.445 8.445 0 100-16.89 8.445 8.445 0 000 16.89z"/><path fill="var(--color10, #fff)" d="M20.244 20.464a6.13 6.13 0 10-8.67-8.67 6.13 6.13 0 008.67 8.67z"/><path fill="var(--color11, #00d7ff)" d="M19.149 17.829a3.659 3.659 0 00-6.471-3.418l-.01.02a3.659 3.659 0 006.472 3.418l.01-.02z"/><path fill="var(--color10, #fff)" d="M16.145 18.106a1.989 1.989 0 10-.48-3.949l.01-.001a1.989 1.989 0 10.48 3.949l-.01.001z"/></symbol>

<symbol id="icon-arrow" viewBox="0 0 53 32"><path fill="#ff7b00" d="M23.081 20.356L26.19 8.051 44.874.055 41.063 11.8l11.154 5.07-18.294 8.587-10.843-5.102z"/><path fill="var(--color2, #ff9557)" d="M2.267 31.37a2.42 2.42 0 01-1.395-1.293l-.006-.015a2.44 2.44 0 011.213-3.213l.015-.006L42.76 8.642c1.228-.544 2.676 0 3.22 1.228.544 1.229 0 2.677-1.228 3.221L4.087 31.292a2.398 2.398 0 01-1.837.072l.017.005z"/></symbol>

<symbol id="icon-arrow-right" viewBox="0 0 32 32"><path d="M21.548 27.085a1.119 1.119 0 01-1.613 0 1.17 1.17 0 010-1.622l8.177-8.307H1.128c-.629-.001-1.129-.509-1.129-1.148s.5-1.163 1.129-1.163h26.984l-8.177-8.291c-.436-.458-.436-1.196 0-1.638a1.119 1.119 0 011.613 0l10.113 10.273c.451.443.451 1.18 0 1.622L21.548 27.085z"/></symbol>

</defs></svg>