<svg width="15" height="15" viewBox="0 0 15 15" fill="none" xmlns="http://www.w3.org/2000/svg">
<path d="M14.3473 5.23301L10.2166 4.84241C9.95618 4.81874 9.73117 4.65303 9.62477 4.40447L8.14523 0.818109C7.9085 0.2263 7.06801 0.2263 6.83128 0.818109L5.36359 4.40447C5.2689 4.65303 5.03217 4.81874 4.77177 4.84241L0.640911 5.23301C0.025424 5.29219 -0.223138 6.06154 0.238477 6.47581L3.35142 9.20996C3.55264 9.38751 3.63549 9.6479 3.57631 9.9083L2.64124 13.7431C2.49921 14.3469 3.1502 14.8439 3.69467 14.5244L7.13903 12.5003C7.36392 12.3701 7.63615 12.3701 7.86104 12.5003L11.3055 14.5244C11.85 14.8439 12.501 14.3587 12.3588 13.7431L11.4356 9.9083C11.3764 9.6479 11.4593 9.38751 11.6605 9.20996L14.7734 6.47581C15.2232 6.06154 14.9628 5.29219 14.3473 5.23301Z" fill="#00D7FF"/>
</svg>
