<svg width="30" height="30" viewBox="0 0 30 30" fill="none" xmlns="http://www.w3.org/2000/svg">
<circle cx="15" cy="15" r="15" fill="#3E4E6C"/>
<path d="M18.503 8.896V16.954C18.503 18.3707 18.112 19.4473 17.33 20.184C16.5593 20.9207 15.4543 21.289 14.015 21.289C12.5643 21.289 11.4537 20.898 10.683 20.116C9.92367 19.334 9.544 18.2347 9.544 16.818V15.917H12.876V16.274C12.876 16.308 12.876 16.4157 12.876 16.597C12.876 16.767 12.876 16.8803 12.876 16.937C12.876 16.9937 12.8817 17.1013 12.893 17.26C12.9043 17.4187 12.9213 17.532 12.944 17.6C12.978 17.668 13.0177 17.7587 13.063 17.872C13.1083 17.9853 13.165 18.0703 13.233 18.127C13.3123 18.1723 13.403 18.2177 13.505 18.263C13.6183 18.297 13.743 18.314 13.879 18.314C14.1963 18.314 14.4287 18.2233 14.576 18.042C14.7233 17.8493 14.797 17.5433 14.797 17.124V8.896H18.503Z" fill="white"/>
</svg>
