<svg width="16" height="16" viewBox="0 0 16 16" fill="none" xmlns="http://www.w3.org/2000/svg">
<path d="M1.1601 7.24H7.23999V1.15998C7.23999 0.740548 7.58051 0.400024 8.00008 0.400024C8.4195 0.400024 8.76003 0.740548 8.76003 1.15998V7.24H14.8401C15.2595 7.24 15.6 7.58053 15.6 7.99995C15.6 8.41952 15.2595 8.76005 14.8401 8.76005H8.76003V14.8399C8.76003 15.2595 8.4195 15.6 8.00008 15.6C7.58051 15.6 7.23999 15.2595 7.23999 14.8399V8.76005H1.1601C0.74053 8.76005 0.400006 8.41952 0.400006 7.99995C0.400006 7.58053 0.74053 7.24 1.1601 7.24Z" fill="white"/>
</svg>
